
        <svg xmlns="http://www.w3.org/2000/svg" xmlns:xlink="http://www.w3.org/1999/xlink" version="1.1" width="3162.0810405202596" 
        height="687.3436718359179" viewBox="0 0 3162.0810405202596 687.3436718359179">
			
			<g transform="scale(8.104052026013006) translate(10, 10)">
				<defs id="SvgjsDefs14169"></defs><g id="SvgjsG14170" featureKey="Yq2hqX-0" transform="matrix(20.681180103339855,0,0,20.681180103339855,-19.295542850942233,-19.295542850942233)" fill="#d41d0d"><title xmlns="http://www.w3.org/2000/svg">maze</title><g xmlns="http://www.w3.org/2000/svg"><polygon points="2.77 1.478 3.325 1.478 3.325 1.285 2.964 1.285 2.964 0.933 2.395 0.933 2.395 1.126 2.77 1.126 2.77 1.478"></polygon><polygon points="2.396 1.93 2.59 1.93 2.59 1.361 2.237 1.361 2.237 1 2.044 1 2.044 1.555 2.396 1.555 2.396 1.93"></polygon><polygon points="3.164 2.205 3.358 2.205 3.358 1.845 3.71 1.845 3.71 1.276 3.516 1.276 3.516 1.651 3.164 1.651 3.164 2.205"></polygon><polygon points="2.763 2.059 2.413 2.059 2.403 2.498 2.597 2.502 2.603 2.253 2.957 2.253 2.957 1.684 2.763 1.684 2.763 2.059"></polygon><polygon points="4.067 2.395 3.874 2.395 3.874 2.77 3.522 2.77 3.522 3.325 3.715 3.325 3.715 2.964 4.067 2.964 4.067 2.395"></polygon><polygon points="3.513 2.396 3.07 2.396 3.07 2.59 3.707 2.59 3.707 2.237 4 2.237 4 2.044 3.513 2.044 3.513 2.396"></polygon><polygon points="3.724 3.71 3.724 3.516 3.349 3.516 3.349 3.083 2.795 3.083 2.795 3.277 3.155 3.277 3.155 3.71 3.724 3.71"></polygon><polygon points="2.747 2.503 2.747 2.942 3.316 2.942 3.316 2.748 2.941 2.748 2.941 2.503 2.747 2.503"></polygon><polygon points="2.605 4.067 2.605 3.874 2.23 3.874 2.23 3.522 1.675 3.522 1.675 3.715 2.036 3.715 2.036 4.067 2.605 4.067"></polygon><polygon points="2.956 4 2.956 3.445 2.604 3.445 2.604 3.07 2.41 3.07 2.41 3.639 2.763 3.639 2.763 4 2.956 4"></polygon><polygon points="1.484 3.349 1.836 3.349 1.836 2.795 1.642 2.795 1.642 3.155 1.29 3.155 1.29 3.724 1.484 3.724 1.484 3.349"></polygon><polygon points="2.043 3.316 2.237 3.316 2.237 2.876 2.6 2.876 2.6 2.682 2.043 2.682 2.043 3.316"></polygon><polygon points="1.126 2.23 1.497 2.23 1.497 1.675 1.304 1.675 1.304 2.036 0.933 2.036 0.933 2.605 1.126 2.605 1.126 2.23"></polygon><polygon points="1.304 2.763 1 2.763 1 2.956 1.497 2.956 1.497 2.604 1.93 2.604 1.93 2.41 1.304 2.41 1.304 2.763"></polygon><polygon points="1.651 1.909 2.205 1.909 2.205 1.716 1.845 1.716 1.845 1.29 1.276 1.29 1.276 1.484 1.651 1.484 1.651 1.909"></polygon><polygon points="1.684 2.237 2.059 2.237 2.059 2.492 2.253 2.492 2.253 2.043 1.684 2.043 1.684 2.237"></polygon></g></g><g id="SvgjsG14171" featureKey="8Idkkj-0" transform="matrix(2.1631160961262523,0,0,2.1631160961262523,82.18794917818128,-4.5077738768986215)" fill="#ffffff"><path d="M3.96 20 l-2.66 0 l0 -14.24 l9.36 0 l0 2.62 l-6.7 0 l0 2.1 l3.7 0 l0 2.64 l-3.7 0 l0 6.88 z M22.96 20 l-2.88 0 l-1.46 -3.84 l-4.72 0 l-1.48 3.84 l-2.86 0 l5.48 -14.24 l2.42 0 z M14.940000000000001 13.52 l2.64 0 l-1.32 -3.46 z M29.98 20.12 c-0.46 0 -0.94 -0.06 -1.44 -0.16 c-1.48 -0.3 -2.92 -1.02 -4.18 -2.12 l-0.38 -0.34 l1.76 -2 l0.38 0.34 c0.92 0.8 1.94 1.34 2.94 1.54 l0.02 0 c0.3 0.06 0.6 0.1 0.9 0.1 c0.5 0 0.96 -0.1 1.34 -0.28 c0.48 -0.2 1.04 -0.64 1.04 -1.46 c0 -0.44 -0.22 -0.78 -0.68 -1.06 c-0.56 -0.34 -1.32 -0.52 -1.86 -0.62 c-0.24 -0.04 -2.28 -0.46 -3.22 -0.98 c-0.62 -0.38 -1.1 -0.86 -1.44 -1.42 c-0.34 -0.58 -0.5 -1.22 -0.5 -1.92 c0 -0.76 0.24 -1.52 0.7 -2.22 c0.44 -0.58 1.04 -1.06 1.76 -1.4 s1.52 -0.52 2.38 -0.52 c0.34 0 0.7 0.04 1.06 0.08 c1.32 0.24 2.62 0.84 3.76 1.8 l0.38 0.32 l-1.7 2.06 l-0.38 -0.32 c-1.3 -1.06 -2.42 -1.3 -3.14 -1.3 c-0.46 0 -0.88 0.1 -1.24 0.26 c-0.56 0.26 -0.92 0.74 -0.92 1.22 c0 0.44 0.16 0.72 0.54 0.98 s0.96 0.46 1.88 0.66 c0.12 0.02 0.28 0.06 0.44 0.1 c0.84 0.16 1.96 0.4 2.74 0.86 c0.68 0.36 1.2 0.86 1.56 1.44 s0.54 1.26 0.54 1.98 c0 0.9 -0.24 1.7 -0.72 2.38 c-0.42 0.58 -1.04 1.08 -1.86 1.48 c-0.7 0.36 -1.48 0.52 -2.46 0.52 z M42.58 20 l-2.68 0 l0 -11.6 l-3.5 0 l0 -2.64 l9.68 0 l0 2.64 l-3.5 0 l0 11.6 z M58.76 20 l-6.24 0 l0 -14.24 l5.28 0 c0.96 0 1.9 0.4 2.56 1.08 c0.68 0.66 1.08 1.6 1.08 2.56 c0 0.58 -0.14 1.12 -0.36 1.6 c0.38 0.22 0.74 0.48 1.04 0.8 c0.92 0.9 1.42 2.1 1.42 3.38 s-0.5 2.48 -1.42 3.4 c-0.44 0.44 -0.96 0.8 -1.54 1.04 c-0.58 0.26 -1.2 0.38 -1.82 0.38 z M55.18 17.38 l3.56 0 c1.18 -0.04 2.14 -1.02 2.14 -2.2 c0 -1.16 -0.96 -2.14 -2.12 -2.16 l-3.58 0 l0 4.36 z M55.18 10.4 l2.6 0 c0.56 0 1 -0.46 1 -1 s-0.44 -0.98 -1 -1.02 l-2.6 0 l0 2.02 z M75.62 20 l-9.94 0 l0 -14.24 l2.68 0 l0 11.62 l7.26 0 l0 2.62 z M83.22000000000001 20.2 c-4.1 0 -7.44 -3.32 -7.44 -7.42 c0 -4.12 3.34 -7.46 7.44 -7.46 c4.12 0 7.46 3.34 7.46 7.46 c0 4.1 -3.34 7.42 -7.46 7.42 z M83.22000000000001 7.98 c-2.62 0 -4.76 2.14 -4.76 4.8 c0 2.64 2.14 4.78 4.76 4.78 s4.76 -2.14 4.76 -4.78 c0 -2.66 -2.14 -4.8 -4.76 -4.8 z M99.50000000000001 20.22 c-1 0 -1.98 -0.2 -2.9 -0.58 c-0.88 -0.38 -1.68 -0.92 -2.36 -1.6 c-0.7 -0.68 -1.24 -1.48 -1.6 -2.38 c-0.4 -0.92 -0.6 -1.88 -0.6 -2.9 c0 -4.1 3.36 -7.44 7.46 -7.44 c1.16 0 2.32 0.28 3.34 0.8 c1.02 0.5 1.94 1.28 2.62 2.2 l0.32 0.4 l-2.14 1.58 l-0.3 -0.4 c-0.9 -1.22 -2.3 -1.92 -3.84 -1.92 c-2.64 0 -4.8 2.14 -4.8 4.78 c0 2.66 2.16 4.82 4.8 4.82 c1.52 0 2.92 -0.7 3.84 -1.92 l0.3 -0.38 l2.12 1.56 l-0.32 0.4 c-0.7 0.94 -1.58 1.68 -2.62 2.2 c-1.02 0.52 -2.16 0.78 -3.32 0.78 z M121.60000000000001 20 l-3.34 0 l-5.3 -7.44 l-2.28 2.16 l0 5.28 l-2.66 0 l0 -14.24 l2.66 0 l0 5.34 l5.68 -5.34 l3.84 0 l-5.22 4.94 z M128.10000000000002 20.12 c-0.46 0 -0.94 -0.06 -1.44 -0.16 c-1.48 -0.3 -2.92 -1.02 -4.18 -2.12 l-0.38 -0.34 l1.76 -2 l0.38 0.34 c0.92 0.8 1.94 1.34 2.94 1.54 l0.02 0 c0.3 0.06 0.6 0.1 0.9 0.1 c0.5 0 0.96 -0.1 1.34 -0.28 c0.48 -0.2 1.04 -0.64 1.04 -1.46 c0 -0.44 -0.22 -0.78 -0.68 -1.06 c-0.56 -0.34 -1.32 -0.52 -1.86 -0.62 c-0.24 -0.04 -2.28 -0.46 -3.22 -0.98 c-0.62 -0.38 -1.1 -0.86 -1.44 -1.42 c-0.34 -0.58 -0.5 -1.22 -0.5 -1.92 c0 -0.76 0.24 -1.52 0.7 -2.22 c0.44 -0.58 1.04 -1.06 1.76 -1.4 s1.52 -0.52 2.38 -0.52 c0.34 0 0.7 0.04 1.06 0.08 c1.32 0.24 2.62 0.84 3.76 1.8 l0.38 0.32 l-1.7 2.06 l-0.38 -0.32 c-1.3 -1.06 -2.42 -1.3 -3.14 -1.3 c-0.46 0 -0.88 0.1 -1.24 0.26 c-0.56 0.26 -0.92 0.74 -0.92 1.22 c0 0.44 0.16 0.72 0.54 0.98 s0.96 0.46 1.88 0.66 c0.12 0.02 0.28 0.06 0.44 0.1 c0.84 0.16 1.96 0.4 2.74 0.86 c0.68 0.36 1.2 0.86 1.56 1.44 s0.54 1.26 0.54 1.98 c0 0.9 -0.24 1.7 -0.72 2.38 c-0.42 0.58 -1.04 1.08 -1.86 1.48 c-0.7 0.36 -1.48 0.52 -2.46 0.52 z"></path></g><g id="SvgjsG14172" featureKey="4jp1BL-0" transform="matrix(0.4811048007134328,0,0,0.4811048007134328,105.13401138165669,47.79723799821642)" fill="#ffffff"><path d="M4.48 20 l-2.68 0 l0 -14.24 l2.68 0 l0 14.24 z M26.316000000000003 20 l-2.58 0 l-6.32 -9.34 l0 9.34 l-2.68 0 l0 -14.24 l2.6 0 l6.3 9.32 l0 -9.32 l2.68 0 l0 14.24 z M47.712 20 l-2.58 0 l-6.32 -9.34 l0 9.34 l-2.68 0 l0 -14.24 l2.6 0 l6.3 9.32 l0 -9.32 l2.68 0 l0 14.24 z M63.548 20.2 c-4.1 0 -7.44 -3.32 -7.44 -7.42 c0 -4.12 3.34 -7.46 7.44 -7.46 c4.12 0 7.46 3.34 7.46 7.46 c0 4.1 -3.34 7.42 -7.46 7.42 z M63.548 7.98 c-2.62 0 -4.76 2.14 -4.76 4.8 c0 2.64 2.14 4.78 4.76 4.78 s4.76 -2.14 4.76 -4.78 c0 -2.66 -2.14 -4.8 -4.76 -4.8 z M85.424 20 l-2.42 0 l-5.5 -14.24 l2.88 0 l3.82 9.94 l3.84 -9.94 l2.86 0 z M109.06 20 l-2.88 0 l-1.46 -3.84 l-4.72 0 l-1.48 3.84 l-2.86 0 l5.48 -14.24 l2.42 0 z M101.04 13.52 l2.64 0 l-1.32 -3.46 z M122.63600000000001 20 l-2.68 0 l0 -11.6 l-3.5 0 l0 -2.64 l9.68 0 l0 2.64 l-3.5 0 l0 11.6 z M143.812 20 l-9.2 0 l0 -14.24 l9.38 0 l0 2.6 l-6.7 0 l0 2.1 l5.84 0 l0 2.66 l-5.84 0 l0 4.24 l6.52 0 l0 2.64 z M165.98400000000004 23.3 l-2.34 0 l0 -20.8 l2.34 0 l0 20.8 z M198.79600000000005 20 l-2.88 0 l-1.46 -3.84 l-4.72 0 l-1.48 3.84 l-2.86 0 l5.48 -14.24 l2.42 0 z M190.77600000000004 13.52 l2.64 0 l-1.32 -3.46 z M212.59200000000004 20.2 c-3.06 0 -5.54 -2.48 -5.54 -5.54 l0 -8.9 l2.66 0 l0 8.9 c0 1.6 1.3 2.92 2.88 2.92 c1.6 0 2.88 -1.32 2.88 -2.92 l0 -8.9 l2.68 0 l0 8.9 c0 1.48 -0.58 2.88 -1.62 3.92 c-1.06 1.04 -2.46 1.62 -3.94 1.62 z M232.72800000000004 20 l-2.68 0 l0 -11.6 l-3.5 0 l0 -2.64 l9.68 0 l0 2.64 l-3.5 0 l0 11.6 z M250.92400000000006 20.2 c-4.1 0 -7.44 -3.32 -7.44 -7.42 c0 -4.12 3.34 -7.46 7.44 -7.46 c4.12 0 7.46 3.34 7.46 7.46 c0 4.1 -3.34 7.42 -7.46 7.42 z M250.92400000000006 7.98 c-2.62 0 -4.76 2.14 -4.76 4.8 c0 2.64 2.14 4.78 4.76 4.78 s4.76 -2.14 4.76 -4.78 c0 -2.66 -2.14 -4.8 -4.76 -4.8 z M279.32 20 l-2.66 0 l0 -9.52 l-3.72 5.08 l-3.7 -5.08 l0 9.52 l-2.66 0 l0 -14.24 l2.5 0 l3.86 5.3 l3.86 -5.3 l2.52 0 l0 14.24 z M301.37600000000003 20 l-2.88 0 l-1.46 -3.84 l-4.72 0 l-1.48 3.84 l-2.86 0 l5.48 -14.24 l2.42 0 z M293.356 13.52 l2.64 0 l-1.32 -3.46 z M314.95200000000006 20 l-2.68 0 l0 -11.6 l-3.5 0 l0 -2.64 l9.68 0 l0 2.64 l-3.5 0 l0 11.6 z M336.12800000000004 20 l-9.2 0 l0 -14.24 l9.38 0 l0 2.6 l-6.7 0 l0 2.1 l5.84 0 l0 2.66 l-5.84 0 l0 4.24 l6.52 0 l0 2.64 z M358.3 23.3 l-2.34 0 l0 -20.8 l2.34 0 l0 20.8 z M388.312 20 l-9.2 0 l0 -14.24 l9.38 0 l0 2.6 l-6.7 0 l0 2.1 l5.84 0 l0 2.66 l-5.84 0 l0 4.24 l6.52 0 l0 2.64 z M407.168 20 l-9.94 0 l0 -14.24 l2.68 0 l0 11.62 l7.26 0 l0 2.62 z M425.144 20 l-9.2 0 l0 -14.24 l9.38 0 l0 2.6 l-6.7 0 l0 2.1 l5.84 0 l0 2.66 l-5.84 0 l0 4.24 l6.52 0 l0 2.64 z M441.16 20 l-2.42 0 l-5.5 -14.24 l2.88 0 l3.82 9.94 l3.84 -9.94 l2.86 0 z M464.79600000000005 20 l-2.88 0 l-1.46 -3.84 l-4.72 0 l-1.48 3.84 l-2.86 0 l5.48 -14.24 l2.42 0 z M456.776 13.52 l2.64 0 l-1.32 -3.46 z M478.37200000000007 20 l-2.68 0 l0 -11.6 l-3.5 0 l0 -2.64 l9.68 0 l0 2.64 l-3.5 0 l0 11.6 z M499.54800000000006 20 l-9.2 0 l0 -14.24 l9.38 0 l0 2.6 l-6.7 0 l0 2.1 l5.84 0 l0 2.66 l-5.84 0 l0 4.24 l6.52 0 l0 2.64 z"></path></g>
			</g>
		</svg>
	